<svg xmlns="http://www.w3.org/2000/svg" viewBox="0 0 128 128">
  <defs>
    <linearGradient id="grad" x1="0%" y1="0%" x2="100%" y2="100%">
      <stop offset="0%" style="stop-color:#FF6B6B"/>
      <stop offset="100%" style="stop-color:#FF8E53"/>
    </linearGradient>
  </defs>
  <!-- Background -->
  <rect width="128" height="128" rx="24" fill="url(#grad)"/>
  <!-- Flame icon -->
  <path fill="white" d="M64 20c0 0-24 20-24 48c0 20 12 32 24 36c12-4 24-16 24-36c0-28-24-48-24-48zm0 72c-8 0-16-8-16-20c0-16 12-28 16-32c4 4 16 16 16 32c0 12-8 20-16 20z"/>
  <!-- Robot/gear hint -->
  <circle fill="rgba(255,255,255,0.3)" cx="64" cy="72" r="8"/>
  <circle fill="white" cx="64" cy="72" r="4"/>
</svg>
